<svg width="32" height="43" xmlns="http://www.w3.org/2000/svg"><path fill="none" d="M-1-1h34v45H-1z"/><g><path d="M-1-1h34v45H-1V-1z" fill="none"/><path d="M.706.125v32.012c0 2.375 1.425 4.56 3.562 5.51L16 42.87l11.732-5.223c2.184-.95 3.562-3.135 3.562-5.51V.125H.706z" fill="#3499db"/><path stroke="null" fill="#e8f5fe" d="M15.993 4.085c-.87.89-1.398 2.06-1.398 3.34.055 2.81.434 5.618.467 8.425.073 2.62-.798 5.077-1.85 7.48-.354.67-.736 1.316-1.112 1.967l-1.114-.206c-1.008-.183-1.663-1.066-1.46-1.985.176-.795.948-1.354 1.817-1.354l.404.038-.908-6.872c-.296-3.054-2.04-5.747-4.6-7.49-.44-.302-.91-.574-1.398-.817v24.408h6.217c.466 2.28 1.853 4.282 3.807 5.647.463.294.853.673 1.133 1.118.28-.448.67-.83 1.133-1.122 1.95-1.367 3.34-3.36 3.808-5.642h6.218V6.612c-.49.243-.957.515-1.398.817-2.564 1.747-4.304 4.432-4.6 7.49l-.907 6.88.404-.045c.865 0 1.64.56 1.818 1.36.202.91-.453 1.796-1.46 1.976l-1.115.204c-.38-.65-.762-1.3-1.11-1.965-1.057-2.392-1.922-4.857-1.856-7.476.037-2.815.416-5.622.468-8.425 0-1.29-.526-2.447-1.39-3.34h-.016l-.003-.005zM6.7 10.13c1.206 1.28 2.016 2.87 2.255 4.627l.743 5.666c-.956.434-1.674 1.225-1.95 2.178H6.696V10.13H6.7zm18.596 0V22.6h-1.052c-.276-.956-1-1.743-1.95-2.17l.744-5.673c.24-1.754 1.048-3.347 2.244-4.628h.014zM16 21.533c.5 1.47 1.185 2.884 2.042 4.194-.81.22-1.52.655-2.042 1.24-.522-.59-1.23-1.023-2.042-1.25.857-1.307 1.545-2.713 2.042-4.195v.01zm-9.296 2.76H7.76c.33 1.158 1.335 2.074 2.604 2.398l.894.184c-.24.783-.368 1.607-.368 2.464H6.692v-5.05l.012.003zm17.548 0h1.052v5.05h-4.19c0-.857-.136-1.685-.376-2.465l.894-.185c1.277-.33 2.28-1.25 2.605-2.41l.015.008zM13.075 27.26c1.13.14 1.998 1.015 1.998 2.075h-2.325c0-.72.118-1.417.33-2.08l-.003.005zm5.85 0c.213.662.33 1.354.33 2.075h-2.324c0-1.06.873-1.935 1.998-2.08l-.003.005zm-5.96 3.763h2.108v3.547c-1.023-.975-1.766-2.193-2.112-3.547h.005zm3.973 0h2.108c-.342 1.354-1.09 2.576-2.112 3.547v-3.547h.004z"/></g></svg>